<?xml version="1.0" encoding="UTF-8" standalone="no"?>
<!-- Created with Inkscape (http://www.inkscape.org/) -->

<svg
   width="210mm"
   height="297mm"
   viewBox="0 0 210 297"
   version="1.1"
   id="svg5"
   inkscape:version="1.2 (dc2aedaf03, 2022-05-15)"
   sodipodi:docname="hat - Copy.svg"
   xmlns:inkscape="http://www.inkscape.org/namespaces/inkscape"
   xmlns:sodipodi="http://sodipodi.sourceforge.net/DTD/sodipodi-0.dtd"
   xmlns="http://www.w3.org/2000/svg"
   xmlns:svg="http://www.w3.org/2000/svg">
  <sodipodi:namedview
     id="namedview7"
     pagecolor="#ffffff"
     bordercolor="#666666"
     borderopacity="1.0"
     inkscape:showpageshadow="2"
     inkscape:pageopacity="0.0"
     inkscape:pagecheckerboard="0"
     inkscape:deskcolor="#d1d1d1"
     inkscape:document-units="mm"
     showgrid="false"
     inkscape:zoom="3.0134394"
     inkscape:cx="642.45527"
     inkscape:cy="554.84773"
     inkscape:window-width="1920"
     inkscape:window-height="1129"
     inkscape:window-x="-8"
     inkscape:window-y="-8"
     inkscape:window-maximized="1"
     inkscape:current-layer="layer1" />
  <defs
     id="defs2" />
  <g
     inkscape:label="Layer 1"
     inkscape:groupmode="layer"
     id="layer1"
     style="display:inline">
    <path
       style="fill:#3c383c;fill-opacity:1;stroke:#000000;stroke-width:0.183385px;stroke-linecap:butt;stroke-linejoin:miter;stroke-opacity:0"
       d="m 83.567737,84.728207 c 0,0 -0.398992,18.650283 0.505786,22.064463 1.565792,5.90852 22.253447,9.25437 33.984617,8.96318 11.73119,-0.2912 28.66985,-4.66324 29.29301,-13.54778 0.15047,-2.14513 0.19222,-19.705362 0.19222,-19.705362 z"
       id="path608"
       sodipodi:nodetypes="cszscc" />
    <path
       style="fill:#333333;fill-opacity:1;stroke:#000000;stroke-width:0.264583px;stroke-linecap:butt;stroke-linejoin:miter;stroke-opacity:0"
       d="m 62.983403,88.098523 c 0,1.799527 0,1.799527 0,1.799527 l 57.819547,13.06612 46.63119,-22.924392 -0.0782,-1.330084 z"
       id="path3632" />
    <path
       style="display:inline;fill:#4d4d4d;fill-opacity:1;stroke:#4d4d4d;stroke-width:0.264306px;stroke-linecap:butt;stroke-linejoin:miter;stroke-opacity:0"
       d="m 62.995725,88.143712 49.189085,-20.79951 55.18103,11.498392 -46.53453,22.911626 z"
       id="path161"
       sodipodi:nodetypes="ccccc" />
    <path
       style="fill:#ffd42a;fill-rule:evenodd;stroke:#000000;stroke-width:0.264583px;stroke-linecap:butt;stroke-linejoin:miter;stroke-opacity:0"
       d="m 113.08269,83.428915 -25.006543,10.732896 0.442592,12.945869 1.54908,0.22129 -1.106485,-12.724566 25.891726,-10.5116 z"
       id="path3582" />
    <ellipse
       style="fill:#333333;stroke:#000000;stroke-width:0.264583;stroke-opacity:0"
       id="path3580"
       cx="114.52112"
       cy="83.207619"
       rx="2.6555622"
       ry="1.8810233" />
    <path
       style="fill:#ffdd55;stroke:#000000;stroke-width:0.119892px;stroke-linecap:butt;stroke-linejoin:miter;stroke-opacity:0"
       d="m 87.254409,107.86473 c 0.283293,-4.85659 3.285074,-5.48272 4.145918,-0.88338 0.38277,2.04507 0.842563,7.06948 0.842563,7.06948 l -1.796802,-0.29169 c -1.146562,0.9539 -1.788106,0.55178 -2.229878,-0.005 l -1.156021,0.31981 z"
       id="path3606"
       sodipodi:nodetypes="csccccc" />
    <path
       style="fill:#d9d9bc;fill-opacity:1;stroke:#000000;stroke-width:0.264583px;stroke-linecap:butt;stroke-linejoin:miter;stroke-opacity:0"
       d="m 119.2367,135.78134 c -2.59355,2.35384 -0.84052,10.02346 4.81596,8.45121 0,0 12.6032,-6.34381 10.31595,-10.75288 -2.34939,-4.52887 -15.13191,2.30167 -15.13191,2.30167 z"
       id="path1078"
       sodipodi:nodetypes="ssas" />
    <path
       style="fill:#939381;fill-opacity:1;stroke:#000000;stroke-width:0.130694px;stroke-linecap:butt;stroke-linejoin:miter;stroke-opacity:0"
       d="m 120.09989,138.83585 c -2.02231,1.00551 0.3701,4.02666 0.3701,4.02666 7.06291,-3.96826 13.52856,-2.5512 11.87282,-6.80095 -1.51907,-3.89897 -12.24292,2.77429 -12.24292,2.77429 z"
       id="path1078-2"
       sodipodi:nodetypes="ssas" />
    <path
       d="m 119.67796,139.1095 c 11.92938,-7.97423 17.63138,-0.28247 3.30648,5.39948 0,0 1.48327,-5.4347 -3.30648,-5.39948 z"
       style="fill:#ccccb3;fill-opacity:1;stroke:#000000;stroke-width:0.169961px;stroke-linecap:butt;stroke-linejoin:miter;stroke-opacity:0.012086"
       id="path1125"
       sodipodi:nodetypes="ccc" />
    <path
       style="fill:#ffffde;fill-opacity:1;stroke:#000000;stroke-width:0.299382px;stroke-linecap:butt;stroke-linejoin:miter;stroke-opacity:0"
       d="m 119.30732,135.83721 c 4.35485,-2.54255 17.10032,-8.68324 24.36154,-13.64488 10.8682,-7.42631 15.33845,-12.99873 17.30677,-12.86513 3.43494,0.23315 5.40558,5.09478 3.91169,7.74346 -0.43822,0.77698 -7.84776,4.45428 -16.99084,10.50283 -9.51858,6.29695 -17.2676,16.02149 -22.00812,18.0854 0,0 1.47202,-9.88667 -6.58104,-9.82168 z"
       id="path1076"
       sodipodi:nodetypes="csssscc" />
    <path
       style="fill:#ff7676;fill-opacity:1;stroke:#000000;stroke-width:0.264583px;stroke-linecap:butt;stroke-linejoin:miter;stroke-opacity:5.8881e-05"
       d="m 138.21189,125.63742 4.80003,-3.13555 c 0,0 1.47492,-0.57174 3.39341,1.68637 1.65911,1.95283 1.07886,3.33762 1.07886,3.33762 l -4.09898,3.46921 c 0,0 -0.76171,-2.59623 -1.50926,-3.5057 -0.73242,-0.89105 -3.66406,-1.85195 -3.66406,-1.85195 z"
       id="path1162"
       sodipodi:nodetypes="ccsccsc" />
    <path
       style="fill:#ff7676;fill-opacity:1;stroke:#000000;stroke-width:0.264583px;stroke-linecap:butt;stroke-linejoin:miter;stroke-opacity:0.000746125"
       d="m 143.9268,129.02291 -2.83163,6.35249 c 0,0 2.77794,-0.68112 2.68908,-0.9775 -0.0888,-0.29637 1.95409,2.48713 1.95409,2.48713 l 0.16518,-7.76154 z"
       id="path1164" />
    <path
       style="display:inline;fill:#ff7676;fill-opacity:1;stroke:#000000;stroke-width:0.264583px;stroke-linecap:butt;stroke-linejoin:miter;stroke-opacity:0.000746125"
       d="m 145.13902,129.12909 4.03341,5.66604 c 0,0 0.82445,-2.73883 0.52402,-2.81285 -0.3004,-0.074 3.13498,-0.41977 3.13498,-0.41977 l -6.60164,-4.085 z"
       id="path1164-4" />
  </g>
</svg>
