<?xml version="1.0" encoding="UTF-8" standalone="no"?>
<!-- Created with Inkscape (http://www.inkscape.org/) -->

<svg
   width="210mm"
   height="297mm"
   viewBox="0 0 210 297"
   version="1.1"
   id="svg5"
   inkscape:version="1.2 (dc2aedaf03, 2022-05-15)"
   sodipodi:docname="hat.svg"
   xmlns:inkscape="http://www.inkscape.org/namespaces/inkscape"
   xmlns:sodipodi="http://sodipodi.sourceforge.net/DTD/sodipodi-0.dtd"
   xmlns="http://www.w3.org/2000/svg"
   xmlns:svg="http://www.w3.org/2000/svg">
  <sodipodi:namedview
     id="namedview7"
     pagecolor="#ffffff"
     bordercolor="#666666"
     borderopacity="1.0"
     inkscape:showpageshadow="2"
     inkscape:pageopacity="0.0"
     inkscape:pagecheckerboard="0"
     inkscape:deskcolor="#d1d1d1"
     inkscape:document-units="mm"
     showgrid="false"
     inkscape:zoom="1.1956037"
     inkscape:cx="436.18133"
     inkscape:cy="306.12151"
     inkscape:window-width="1920"
     inkscape:window-height="1129"
     inkscape:window-x="-8"
     inkscape:window-y="-8"
     inkscape:window-maximized="1"
     inkscape:current-layer="layer1" />
  <defs
     id="defs2" />
  <g
     inkscape:label="Layer 1"
     inkscape:groupmode="layer"
     id="layer1">
    <path
       style="fill:#3c383c;fill-opacity:1;stroke:#000000;stroke-width:0.183385px;stroke-linecap:butt;stroke-linejoin:miter;stroke-opacity:0"
       d="m 83.567737,84.728207 c 0,0 -0.398992,18.650283 0.505786,22.064463 1.565792,5.90852 22.253447,9.25437 33.984617,8.96318 11.73119,-0.2912 28.66985,-4.66324 29.29301,-13.54778 0.15047,-2.14513 0.19222,-19.705362 0.19222,-19.705362 z"
       id="path608"
       sodipodi:nodetypes="cszscc" />
    <path
       style="fill:#333333;stroke:#000000;stroke-width:0.264583px;stroke-linecap:butt;stroke-linejoin:miter;stroke-opacity:0;fill-opacity:1"
       d="m 62.983403,88.098523 c 0,1.799527 0,1.799527 0,1.799527 l 57.819547,13.06612 46.63119,-22.924392 -0.0782,-1.330084 z"
       id="path3632" />
    <path
       style="display:inline;fill:#4d4d4d;fill-opacity:1;stroke:#4d4d4d;stroke-width:0.264306px;stroke-linecap:butt;stroke-linejoin:miter;stroke-opacity:0"
       d="m 62.995725,88.143712 49.189085,-20.79951 55.18103,11.498392 -46.53453,22.911626 z"
       id="path161"
       sodipodi:nodetypes="ccccc" />
    <path
       style="fill:#ffd42a;fill-rule:evenodd;stroke:#000000;stroke-width:0.264583px;stroke-linecap:butt;stroke-linejoin:miter;stroke-opacity:0"
       d="m 113.08269,83.428915 -25.006543,10.732896 0.442592,12.945869 1.54908,0.22129 -1.106485,-12.724566 25.891726,-10.5116 z"
       id="path3582" />
    <ellipse
       style="fill:#333333;stroke:#000000;stroke-width:0.264583;stroke-opacity:0"
       id="path3580"
       cx="114.52112"
       cy="83.207619"
       rx="2.6555622"
       ry="1.8810233" />
    <path
       style="fill:#ffdd55;stroke:#000000;stroke-width:0.119892px;stroke-linecap:butt;stroke-linejoin:miter;stroke-opacity:0"
       d="m 87.254409,107.86473 c 0.283293,-4.85659 3.285074,-5.48272 4.145918,-0.88338 0.38277,2.04507 0.842563,7.06948 0.842563,7.06948 l -1.796802,-0.29169 c -1.146562,0.9539 -1.788106,0.55178 -2.229878,-0.005 l -1.156021,0.31981 z"
       id="path3606"
       sodipodi:nodetypes="csccccc" />
  </g>
</svg>
