<?xml version="1.0" encoding="UTF-8" standalone="no"?>
<svg
   xmlns:dc="http://purl.org/dc/elements/1.1/"
   xmlns:cc="http://creativecommons.org/ns#"
   xmlns:rdf="http://www.w3.org/1999/02/22-rdf-syntax-ns#"
   xmlns:svg="http://www.w3.org/2000/svg"
   xmlns="http://www.w3.org/2000/svg"
   xmlns:sodipodi="http://sodipodi.sourceforge.net/DTD/sodipodi-0.dtd"
   xmlns:inkscape="http://www.inkscape.org/namespaces/inkscape"
   width="2085.7144"
   height="994.34515"
   viewBox="0 0 551.84526 263.08715"
   version="1.1"
   id="svg8"
   inkscape:version="1.0.1 (3bc2e813f5, 2020-09-07)"
   sodipodi:docname="portfoliomain.svg"
   inkscape:export-filename="C:\Users\fujih\PersonalProjects\hiro0118.github.io\images\portfoliomain.png"
   inkscape:export-xdpi="96"
   inkscape:export-ydpi="96">
  <defs
     id="defs2">
    <inkscape:perspective
       sodipodi:type="inkscape:persp3d"
       inkscape:vp_x="-5.3453906 : 90.265599 : 1"
       inkscape:vp_y="0 : 999.99995 : 0"
       inkscape:vp_z="210.00001 : 114.5872 : 1"
       inkscape:persp3d-origin="105 : 65.087199 : 1"
       id="perspective889" />
  </defs>
  <sodipodi:namedview
     id="base"
     pagecolor="#ffffff"
     bordercolor="#666666"
     borderopacity="1.0"
     inkscape:pageopacity="0.0"
     inkscape:pageshadow="2"
     inkscape:zoom="1.4"
     inkscape:cx="903.1893"
     inkscape:cy="960.68968"
     inkscape:document-units="mm"
     inkscape:current-layer="layer1"
     inkscape:document-rotation="0"
     showgrid="false"
     inkscape:snap-grids="true"
     inkscape:snap-others="false"
     inkscape:snap-global="false"
     inkscape:snap-bbox="true"
     inkscape:snap-nodes="true"
     showguides="false"
     inkscape:window-width="2560"
     inkscape:window-height="1027"
     inkscape:window-x="-8"
     inkscape:window-y="-8"
     inkscape:window-maximized="1"
     units="px"
     fit-margin-top="0"
     fit-margin-left="0"
     fit-margin-right="0"
     fit-margin-bottom="0">
    <sodipodi:guide
       position="114.74072,128.15838"
       orientation="0,-1"
       id="guide1410" />
  </sodipodi:namedview>
  <metadata
     id="metadata5">
    <rdf:RDF>
      <cc:Work
         rdf:about="">
        <dc:format>image/svg+xml</dc:format>
        <dc:type
           rdf:resource="http://purl.org/dc/dcmitype/StillImage" />
        <dc:title />
      </cc:Work>
    </rdf:RDF>
  </metadata>
  <g
     inkscape:label="Layer 1"
     inkscape:groupmode="layer"
     id="layer1"
     transform="translate(-5.0777335,85.413902)">
    <rect
       style="fill:#6f75a5;fill-opacity:1;stroke-width:0.242503"
       id="rect1621"
       width="551.84528"
       height="213.37503"
       x="5.0777335"
       y="-35.701771"
       ry="1.6776791"
       inkscape:export-xdpi="96"
       inkscape:export-ydpi="96" />
    <g
       id="g2002"
       transform="matrix(0.61560121,0,0,0.61560121,89.723338,-59.95134)"
       inkscape:export-xdpi="96"
       inkscape:export-ydpi="96">
      <path
         id="path1695-3-6"
         style="fill:#cad9d9;fill-opacity:1;stroke-width:0.0691048"
         d="m 440.28186,332.38545 a 10.059259,12.128996 0 0 0 -10.0592,12.12891 10.059259,12.128996 0 0 0 10.0592,12.12907 10.059259,12.128996 0 0 0 10.05935,-12.12907 10.059259,12.128996 0 0 0 -10.05935,-12.12891 z m -0.008,5.35486 a 5.3553243,6.7741308 0 0 1 0.008,0 5.3553243,6.7741308 0 0 1 5.35532,6.77405 5.3553243,6.7741308 0 0 1 -5.35532,6.7742 5.3553243,6.7741308 0 0 1 -5.35531,-6.7742 5.3553243,6.7741308 0 0 1 5.34742,-6.77405 z" />
      <rect
         style="fill:#d5e5e5;fill-opacity:1;stroke-width:0.0728702"
         id="rect1672-2"
         width="33.892139"
         height="33.179264"
         x="405.64047"
         y="326.75153"
         ry="0" />
      <ellipse
         style="fill:#d5e4e5;fill-opacity:1;stroke-width:0.0762533"
         id="path1674-4-6"
         cx="422.58652"
         cy="360.09012"
         rx="16.946072"
         ry="4.7757115" />
      <path
         id="path1674-4-6-1"
         style="fill:#cad9d9;fill-opacity:1;stroke-width:0.0762532"
         d="m 433.63688,326.75176 v 36.8541 h 0.4196 a 16.946074,4.7757119 0 0 0 5.47616,-3.51555 16.946074,4.7757119 0 0 0 0,-0.008 16.946074,4.7757119 0 0 0 -0.01,-0.15142 h 0.01 v -33.17938 z" />
      <ellipse
         style="fill:#d5e4e5;fill-opacity:1;stroke-width:0.0762533"
         id="path1674-7"
         cx="422.58652"
         cy="326.64276"
         rx="16.946072"
         ry="4.7757115" />
      <ellipse
         style="fill:#b9c7c7;fill-opacity:1;stroke-width:0.0629667"
         id="path1674-9-6"
         cx="422.58084"
         cy="326.45187"
         rx="15.326963"
         ry="3.6004047" />
      <path
         id="rect1806-0"
         style="fill:#ffffff;fill-opacity:0.361446;stroke-width:0.0693904"
         d="m 422.08119,297.6634 c 1e-5,0 1.94142,3.33177 0.97642,5.64445 -1.37358,2.67199 -8.34984,1.62548 -10.54531,7.75197 -1.46825,4.63826 3.48036,9.33787 14.13272,13.83377 0,0 -4.15446,-5.20875 -1.87356,-8.78884 2.2809,-3.5801 9.29353,-2.99971 10.9503,-7.2821 1.40267,-5.01604 -10.64533,-9.28015 -13.64057,-11.15925 z" />
      <path
         id="path1674-9-0-8"
         style="fill:#5f2108;fill-opacity:1;stroke-width:0.0607011"
         d="m 422.53631,326.49282 a 14.966998,3.4264581 0 0 0 -13.12541,1.80535 14.966998,3.4264581 0 0 0 13.18586,1.80548 14.966998,3.4264581 0 0 0 13.18615,-1.80548 14.966998,3.4264581 0 0 0 -13.18615,-1.80535 14.966998,3.4264581 0 0 0 -0.0605,0 z" />
    </g>
    <rect
       style="fill:#cccccc;fill-rule:evenodd;stroke-width:0.166293"
       id="rect10-6"
       width="84.496483"
       height="50.64674"
       x="238.75214"
       y="102.06239"
       ry="1.3010468"
       inkscape:transform-center-x="85.299431"
       inkscape:transform-center-y="-7.9033039" />
    <rect
       style="fill:#333333;fill-rule:evenodd;stroke-width:0.163409"
       id="rect10"
       width="83.397537"
       height="49.548901"
       x="239.36002"
       y="102.60342"
       ry="0.97474432" />
    <rect
       style="fill:#464646;fill-opacity:1;fill-rule:evenodd;stroke-width:0.152001"
       id="rect10-0"
       width="78.921028"
       height="45.304955"
       x="241.59828"
       y="104.72539"
       ry="0" />
    <rect
       style="fill:#646464;fill-opacity:1;fill-rule:evenodd;stroke-width:0.0427388"
       id="rect10-0-3"
       width="78.921028"
       height="3.5817549"
       x="241.59828"
       y="104.72539"
       ry="0" />
    <rect
       style="fill:#5a5a5a;fill-opacity:1;fill-rule:evenodd;stroke-width:0.0649394"
       id="rect10-0-3-1"
       width="15.641804"
       height="41.723194"
       x="241.59828"
       y="108.30714"
       ry="0" />
    <rect
       style="fill:#969696;fill-opacity:1;fill-rule:evenodd;stroke-width:0.0101452"
       id="rect10-0-3-1-3-3-5"
       width="11.362893"
       height="1.4017874"
       x="275.2392"
       y="115.09679"
       ry="0" />
    <rect
       style="fill:#ff9955;fill-opacity:1;fill-rule:evenodd;stroke-width:0.011134"
       id="rect10-0-3-1-3-3-5-3"
       width="13.685731"
       height="1.4017874"
       x="260.2019"
       y="115.09679"
       ry="0" />
    <rect
       style="fill:#ffe680;fill-opacity:1;fill-rule:evenodd;stroke-width:0.0101452"
       id="rect10-0-3-1-3-3-5-3-0"
       width="11.362893"
       height="1.4017874"
       x="260.2019"
       y="111.79592"
       ry="0" />
    <rect
       style="fill:#969696;fill-opacity:1;fill-rule:evenodd;stroke-width:0.013839"
       id="rect10-0-3-1-3-3-5-8"
       width="21.143259"
       height="1.4017874"
       x="260.2019"
       y="118.39767"
       ry="0" />
    <rect
       style="fill:#969696;fill-opacity:1;fill-rule:evenodd;stroke-width:0.0101452"
       id="rect10-0-3-1-3-3-5-8-5"
       width="11.362893"
       height="1.4017874"
       x="260.2019"
       y="121.69855"
       ry="0" />
    <rect
       style="fill:#975ac1;fill-opacity:1;fill-rule:evenodd;stroke-width:0.00998016"
       id="rect10-0-3-1-3-3-5-3-4"
       width="10.996131"
       height="1.4017874"
       x="282.75787"
       y="118.39767"
       ry="0" />
    <rect
       style="fill:#497e49;fill-opacity:1;fill-rule:evenodd;stroke-width:0.011134"
       id="rect10-0-3-1-3-3-5-3-4-2"
       width="13.685731"
       height="1.4017874"
       x="272.81509"
       y="121.69855"
       ry="0" />
    <rect
       style="fill:#969696;fill-opacity:1;fill-rule:evenodd;stroke-width:0.0119032"
       id="rect10-0-3-1-3-3-5-8-7"
       width="15.641801"
       height="1.4017874"
       x="269.00421"
       y="124.99941"
       ry="0" />
    <rect
       style="fill:#497e49;fill-opacity:1;fill-rule:evenodd;stroke-width:0.00975569"
       id="rect10-0-3-1-3-3-5-3-4-2-4"
       width="10.507113"
       height="1.4017874"
       x="285.81424"
       y="124.99941"
       ry="0" />
    <rect
       style="fill:#969696;fill-opacity:1;fill-rule:evenodd;stroke-width:0.0145413"
       id="rect10-0-3-1-3-3-5-1"
       width="23.34384"
       height="1.4017874"
       x="275.26419"
       y="131.60117"
       ry="0" />
    <rect
       style="fill:#ff9955;fill-opacity:1;fill-rule:evenodd;stroke-width:0.011134"
       id="rect10-0-3-1-3-3-5-3-02"
       width="13.685731"
       height="1.4017874"
       x="260.2019"
       y="131.60117"
       ry="0" />
    <rect
       style="fill:#ffe680;fill-opacity:1;fill-rule:evenodd;stroke-width:0.0101452"
       id="rect10-0-3-1-3-3-5-3-0-2"
       width="11.362893"
       height="1.4017874"
       x="260.2019"
       y="128.30029"
       ry="0" />
    <rect
       style="fill:#969696;fill-opacity:1;fill-rule:evenodd;stroke-width:0.0105203"
       id="rect10-0-3-1-3-3-5-8-4"
       width="12.218674"
       height="1.4017874"
       x="283.80841"
       y="138.2029"
       ry="0" />
    <rect
       style="fill:#969696;fill-opacity:1;fill-rule:evenodd;stroke-width:0.0101452"
       id="rect10-0-3-1-3-3-5-8-5-7"
       width="11.362893"
       height="1.4017874"
       x="260.2019"
       y="134.90204"
       ry="0" />
    <rect
       style="fill:#975ac1;fill-opacity:1;fill-rule:evenodd;stroke-width:0.0113312"
       id="rect10-0-3-1-3-3-5-3-4-7"
       width="14.174749"
       height="1.4017874"
       x="268.40991"
       y="138.2029"
       ry="0" />
    <rect
       style="fill:#497e49;fill-opacity:1;fill-rule:evenodd;stroke-width:0.0129716"
       id="rect10-0-3-1-3-3-5-3-4-2-0"
       width="18.575914"
       height="1.4017874"
       x="272.84006"
       y="134.90204"
       ry="0" />
    <rect
       style="fill:#497e49;fill-opacity:1;fill-rule:evenodd;stroke-width:0.0112822"
       id="rect10-0-3-1-3-3-5-3-4-2-4-9"
       width="14.052494"
       height="1.4017874"
       x="287.94586"
       y="144.80466"
       ry="0" />
    <rect
       style="fill:#969696;fill-opacity:1;fill-rule:evenodd;stroke-width:0.0151749"
       id="rect10-0-3-1-3-3-5-8-7-0-6"
       width="25.422167"
       height="1.4017874"
       x="260.2019"
       y="141.50377"
       ry="0" />
    <rect
       style="fill:#969696;fill-opacity:1;fill-rule:evenodd;stroke-width:0.0129716"
       id="rect10-0-3-1-3-3-5-8-7-0-6-2"
       width="18.575909"
       height="1.4017874"
       x="268.33362"
       y="144.80466"
       ry="0" />
    <rect
       style="fill:#ff9955;fill-opacity:1;fill-rule:evenodd;stroke-width:0.00828233"
       id="rect10-0-3-1-3-3-5-3-02-8"
       width="7.5730028"
       height="1.4017874"
       x="260.2019"
       y="124.99941"
       ry="0" />
    <rect
       style="fill:#ff9955;fill-opacity:1;fill-rule:evenodd;stroke-width:0.00794103"
       id="rect10-0-3-1-3-3-5-3-02-4"
       width="6.9617295"
       height="1.4017874"
       x="260.2019"
       y="138.2029"
       ry="0" />
    <rect
       style="fill:#ff9955;fill-opacity:1;fill-rule:evenodd;stroke-width:0.00794103"
       id="rect10-0-3-1-3-3-5-3-02-4-2"
       width="6.9617295"
       height="1.4017874"
       x="260.2019"
       y="144.80466"
       ry="0" />
    <rect
       style="fill:#969696;fill-opacity:1;fill-rule:evenodd;stroke-width:0.00998016"
       id="rect10-0-3-1-3-3-5-8-58"
       width="10.996128"
       height="1.4017874"
       x="243.51414"
       y="110.57338"
       ry="0" />
    <rect
       style="fill:#969696;fill-opacity:1;fill-rule:evenodd;stroke-width:0.0091394"
       id="rect10-0-3-1-3-3-5-8-58-0"
       width="9.2215004"
       height="1.4017874"
       x="245.28877"
       y="113.8335"
       ry="0" />
    <rect
       style="fill:#969696;fill-opacity:1;fill-rule:evenodd;stroke-width:0.0091394"
       id="rect10-0-3-1-3-3-5-8-58-05"
       width="9.2215004"
       height="1.4017874"
       x="245.28877"
       y="117.09363"
       ry="0" />
    <rect
       style="fill:#969696;fill-opacity:1;fill-rule:evenodd;stroke-width:0.0091394"
       id="rect10-0-3-1-3-3-5-8-58-3"
       width="9.2215004"
       height="1.4017874"
       x="245.28877"
       y="120.35374"
       ry="0" />
    <rect
       style="fill:#969696;fill-opacity:1;fill-rule:evenodd;stroke-width:0.00998016"
       id="rect10-0-3-1-3-3-5-8-58-33"
       width="10.996128"
       height="1.4017874"
       x="243.51414"
       y="123.61387"
       ry="0" />
    <rect
       style="fill:#969696;fill-opacity:1;fill-rule:evenodd;stroke-width:0.0091394"
       id="rect10-0-3-1-3-3-5-8-58-2"
       width="9.2215004"
       height="1.4017874"
       x="245.28877"
       y="126.87399"
       ry="0" />
    <rect
       style="fill:#969696;fill-opacity:1;fill-rule:evenodd;stroke-width:0.0091394"
       id="rect10-0-3-1-3-3-5-8-58-9"
       width="9.2215004"
       height="1.4017874"
       x="245.28877"
       y="130.13411"
       ry="0" />
    <g
       id="g1061"
       transform="matrix(0.90390277,0,0,0.90390277,24.099312,-30.802835)">
      <rect
         style="fill:#adadad;fill-opacity:1;stroke-width:0.15978"
         id="rect1499-0-4"
         width="115.58548"
         height="2.5862033"
         x="226.42043"
         y="209.41554"
         ry="0.76211619" />
      <rect
         style="fill:#adadad;fill-opacity:1;stroke-width:0.0785492"
         id="rect1499-6-8-3"
         width="115.58548"
         height="0.62503231"
         x="226.42043"
         y="209.53749"
         ry="0" />
      <path
         id="rect1412-9-5"
         style="fill:#cccccc;fill-opacity:1;stroke-width:0.0992975"
         d="m 237.72246,202.51997 h 92.98142 c 0.70322,0 0.92305,0.10207 1.26937,0.32783 l 9.94964,6.48692 c 0.41846,0.27281 -0.68409,0.39614 -1.53382,0.39614 H 228.03725 c -0.84973,0 -1.9523,-0.12335 -1.53382,-0.39614 l 9.94966,-6.48692 c 0.34632,-0.22581 0.56613,-0.32783 1.26937,-0.32783 z"
         sodipodi:nodetypes="sssssssss" />
      <path
         id="rect1522-7-2"
         style="fill:#4d4d4d;fill-opacity:1;stroke-width:0.0989522"
         d="m 240.44253,203.05107 h 87.80852 c 0.13354,0 0.21982,0.007 0.24115,0.0237 l 4.06471,3.2772 c 0.0229,0.0192 -0.11745,0.0273 -0.26332,0.0273 h -95.89358 c -0.14589,0 -0.28618,-0.007 -0.26333,-0.0273 l 4.06473,-3.2772 c 0.0213,-0.0192 0.10754,-0.0237 0.24112,-0.0237 z"
         sodipodi:nodetypes="sssssssss" />
      <path
         id="rect1522-6-7-9"
         style="fill:#a1a1a1;fill-opacity:1;stroke-width:0.0430593"
         d="m 272.44556,206.78137 h 23.53514 c 0.0358,0 0.0589,0.005 0.0646,0.0159 l 1.08946,2.3153 c 0.007,0.0159 -0.0315,0.0211 -0.0705,0.0211 h -25.70217 c -0.0391,0 -0.0767,-0.005 -0.0705,-0.0211 l 1.08946,-2.3153 c 0.006,-0.0159 0.0288,-0.0159 0.0647,-0.0159 z"
         sodipodi:nodetypes="sssssssss" />
    </g>
    <g
       id="g977"
       transform="translate(-45.844872,-47.24309)">
      <g
         id="g939"
         transform="matrix(0.91586957,0,0,0.95684894,22.558403,9.3916372)">
        <path
           style="fill:#6b6b6b;fill-opacity:1;stroke-width:0.0750087"
           d="m 261.00423,217.47214 c -3.42662,0.29936 -7.10352,0.20586 -9.42172,-0.23958 -5.11064,-0.98197 -8.80125,-3.83424 -10.03889,-7.75847 -0.57333,-1.81787 -0.49042,-3.60128 -0.0947,-5.04781 1.01025,-3.69338 4.72716,-6.75277 9.52546,-7.88558 1.25233,-0.29566 3.74935,-0.66859 5.32715,-0.74231 2.40676,-0.11248 4.75479,-0.0383 6.56102,0.20726 1.46697,0.19943 1.73611,0.26876 1.82106,0.46909 0.0403,0.095 0.20912,1.07133 0.37516,2.16958 0.28512,1.88583 0.29408,1.99556 0.16132,1.97457 -0.0773,-0.0122 -0.7238,-0.12736 -1.43661,-0.25587 -5.42466,-0.97797 -11.56345,-0.77518 -14.90934,0.49253 -2.85885,1.08317 -4.77134,2.88884 -5.27932,4.98446 -0.14229,0.58698 -0.14705,0.73339 -0.0491,1.51247 0.13008,1.0352 0.22817,1.58668 0.91038,2.36595 1.42492,1.62766 3.54369,2.55809 7.07579,3.07494 4.27802,0.626 9.49331,0.2025 14.99376,-1.11448 0.45295,-0.10847 0.82895,-0.21555 0.8444,-0.20246 0.0322,0.0273 0.78851,4.73754 0.7655,4.76728 -0.0888,0.11472 -4.5216,0.98681 -5.50579,1.08316 -0.17012,0.0165 -0.90154,0.082 -1.62543,0.14526 z"
           id="path2381"
           sodipodi:nodetypes="ssssssssssssssssssssss" />
        <path
           id="path2381-4-2-4"
           style="fill:#545454;fill-opacity:1;stroke-width:0.0733481"
           d="m 253.58547,196.50799 c -1.05616,0.14315 -2.03766,0.30948 -2.52726,0.44293 -4.74977,1.2944 -7.23809,3.5745 -8.10734,5.78997 -0.48252,1.22984 -0.52752,3.91849 0.72371,5.59157 -0.22232,-1.7257 -0.16044,-2.49033 0.38113,-3.64466 0.54157,-1.15435 2.04266,-2.855 4.90536,-3.90745 1.94142,-0.588 3.38973,-0.79661 5.72634,-0.96548 2.33661,-0.16887 6.18345,0.11459 9.19773,0.61858 0.71162,0.11899 1.33438,0.018 1.41156,0.0292 0.13254,0.0194 0.1242,-0.0856 -0.15052,-1.88862 -0.12374,-0.81208 -0.24873,-1.54939 -0.31778,-1.88602 -0.17438,-0.11051 -0.59502,-0.18133 -1.71183,-0.32056 -1.80364,-0.2249 -4.14959,-0.2828 -6.55523,-0.16173 -0.78854,0.0397 -1.91952,0.15918 -2.97571,0.30222 z"
           sodipodi:nodetypes="scsczczssscssss" />
      </g>
      <g
         id="g935"
         transform="rotate(4.1805269,255.45574,214.73693)">
        <ellipse
           style="fill:#6b6b6b;fill-opacity:1;stroke-width:0.182006"
           id="path2285-5"
           cx="280.4877"
           cy="186.37891"
           rx="9.4482775"
           ry="6.5264983"
           transform="matrix(0.99895323,0.04574331,-0.04430354,0.99901812,0,0)" />
        <rect
           style="fill:#6b6b6b;fill-opacity:1;stroke-width:0.0224931"
           id="rect2696"
           width="0.7133351"
           height="1.8364928"
           x="280.66565"
           y="199.06015"
           ry="0.0023988853" />
        <ellipse
           style="fill:#404040;fill-opacity:1;stroke-width:0.121867"
           id="path2287-1"
           cx="280.28009"
           cy="188.79143"
           rx="9.9690695"
           ry="7.1433239"
           transform="rotate(2.5801957)" />
        <ellipse
           style="fill:#333333;fill-opacity:1;stroke-width:0.0747626"
           id="path2287-1-6"
           transform="rotate(2.5801957)"
           ry="4.1876493"
           rx="6.4000287"
           cy="189.24431"
           cx="280.27124" />
      </g>
      <g
         id="g929"
         transform="translate(-0.56696429,0.37797619)">
        <ellipse
           style="fill:#4d4d4d;fill-opacity:1;stroke-width:0.121867"
           id="path2287"
           cx="213.00395"
           cy="270.29456"
           rx="9.9690695"
           ry="7.1433239"
           transform="rotate(-14.321206)" />
        <ellipse
           style="fill:#6b6b6b;fill-opacity:1;stroke-width:0.182244"
           id="path2285"
           cx="213.70735"
           cy="273.81168"
           rx="9.4805012"
           ry="6.5214181"
           transform="matrix(0.96811909,-0.25049036,0.24425905,0.96971002,0,0)" />
        <rect
           style="fill:#6b6b6b;fill-opacity:1;stroke-width:0.0836896"
           id="rect2528"
           width="6.4406157"
           height="2.929493"
           x="286.40189"
           y="296.88681"
           transform="matrix(0.95610806,-0.29301429,-0.04122472,0.9991499,0,0)" />
        <ellipse
           style="fill:#6b6b6b;fill-opacity:1;stroke-width:0.188947"
           id="path2285-0"
           cx="214.47461"
           cy="272.75238"
           rx="9.6921177"
           ry="6.8568988"
           transform="matrix(0.9675105,-0.25283084,0.24207237,0.9702582,0,0)" />
        <ellipse
           style="fill:#636363;fill-opacity:1;stroke-width:0.134969"
           id="path2285-0-2"
           cx="213.4252"
           cy="274.87411"
           rx="7.0264096"
           ry="4.8260932"
           transform="matrix(0.96860191,-0.24861686,0.2461109,0.96924167,0,0)" />
      </g>
    </g>
  </g>
</svg>
